<mxfile host="app.diagrams.net" modified="2023-12-13T01:29:42.905Z" agent="Mozilla/5.0 (Windows NT 10.0; Win64; x64) AppleWebKit/537.36 (KHTML, like Gecko) Chrome/119.0.0.0 Safari/537.36" etag="c9mRlGn3BbvxQj6gnY4p" version="22.1.8" type="device">
  <diagram name="Страница — 1" id="YE811fJve_h8RY18TF97">
    <mxGraphModel dx="1050" dy="574" grid="0" gridSize="10" guides="1" tooltips="1" connect="1" arrows="1" fold="1" page="1" pageScale="1" pageWidth="1169" pageHeight="827" math="0" shadow="0">
      <root>
        <mxCell id="0" />
        <mxCell id="1" parent="0" />
        <mxCell id="_sGEJhz44TBx7jCd18O7-2" value="Оцінювання знань&amp;nbsp;&lt;br&gt;студента" style="rounded=0;whiteSpace=wrap;html=1;" vertex="1" parent="1">
          <mxGeometry x="130" y="100" width="150" height="80" as="geometry" />
        </mxCell>
        <mxCell id="_sGEJhz44TBx7jCd18O7-11" value="" style="edgeStyle=none;orthogonalLoop=1;jettySize=auto;html=1;rounded=0;" edge="1" parent="1">
          <mxGeometry width="100" relative="1" as="geometry">
            <mxPoint x="205" y="50" as="sourcePoint" />
            <mxPoint x="204.5" y="100" as="targetPoint" />
            <Array as="points" />
          </mxGeometry>
        </mxCell>
        <mxCell id="_sGEJhz44TBx7jCd18O7-12" value="Методичні рекомендації до оцінювання знань студента" style="text;html=1;strokeColor=none;fillColor=none;align=center;verticalAlign=middle;whiteSpace=wrap;rounded=0;" vertex="1" parent="1">
          <mxGeometry x="150" y="10" width="115" height="40" as="geometry" />
        </mxCell>
        <mxCell id="_sGEJhz44TBx7jCd18O7-14" value="" style="edgeStyle=none;orthogonalLoop=1;jettySize=auto;html=1;rounded=0;" edge="1" parent="1">
          <mxGeometry width="100" relative="1" as="geometry">
            <mxPoint x="50" y="140" as="sourcePoint" />
            <mxPoint x="130" y="139.5" as="targetPoint" />
            <Array as="points" />
          </mxGeometry>
        </mxCell>
        <mxCell id="_sGEJhz44TBx7jCd18O7-15" value="Неоцінені знання студента" style="text;html=1;strokeColor=none;fillColor=none;align=center;verticalAlign=middle;whiteSpace=wrap;rounded=0;" vertex="1" parent="1">
          <mxGeometry x="20" y="110" width="100" height="10" as="geometry" />
        </mxCell>
        <mxCell id="_sGEJhz44TBx7jCd18O7-16" value="" style="edgeStyle=none;orthogonalLoop=1;jettySize=auto;html=1;rounded=0;" edge="1" parent="1">
          <mxGeometry width="100" relative="1" as="geometry">
            <mxPoint x="300" y="139.5" as="sourcePoint" />
            <mxPoint x="360" y="140" as="targetPoint" />
            <Array as="points">
              <mxPoint x="280" y="140" />
            </Array>
          </mxGeometry>
        </mxCell>
        <mxCell id="_sGEJhz44TBx7jCd18O7-17" value="Оцінені знання студента" style="text;html=1;strokeColor=none;fillColor=none;align=center;verticalAlign=middle;whiteSpace=wrap;rounded=0;" vertex="1" parent="1">
          <mxGeometry x="290" y="120" width="110" height="10" as="geometry" />
        </mxCell>
        <mxCell id="_sGEJhz44TBx7jCd18O7-18" value="" style="edgeStyle=none;orthogonalLoop=1;jettySize=auto;html=1;rounded=0;" edge="1" parent="1">
          <mxGeometry width="100" relative="1" as="geometry">
            <mxPoint x="204.5" y="240.5" as="sourcePoint" />
            <mxPoint x="204.5" y="180" as="targetPoint" />
            <Array as="points" />
          </mxGeometry>
        </mxCell>
        <mxCell id="_sGEJhz44TBx7jCd18O7-19" value="Викладач" style="text;html=1;strokeColor=none;fillColor=none;align=center;verticalAlign=middle;whiteSpace=wrap;rounded=0;" vertex="1" parent="1">
          <mxGeometry x="175" y="230" width="60" height="30" as="geometry" />
        </mxCell>
        <mxCell id="_sGEJhz44TBx7jCd18O7-21" value="Призначення&amp;nbsp;&lt;br&gt;дати, місця, виду&amp;nbsp; контролю знань" style="rounded=0;whiteSpace=wrap;html=1;" vertex="1" parent="1">
          <mxGeometry x="70" y="354" width="120" height="60" as="geometry" />
        </mxCell>
        <mxCell id="_sGEJhz44TBx7jCd18O7-22" value="" style="edgeStyle=none;orthogonalLoop=1;jettySize=auto;html=1;rounded=0;" edge="1" parent="1">
          <mxGeometry width="100" relative="1" as="geometry">
            <mxPoint x="20" y="379" as="sourcePoint" />
            <mxPoint x="70" y="379" as="targetPoint" />
            <Array as="points" />
          </mxGeometry>
        </mxCell>
        <mxCell id="_sGEJhz44TBx7jCd18O7-23" value="Неоцінені знання студента" style="text;html=1;strokeColor=none;fillColor=none;align=center;verticalAlign=middle;whiteSpace=wrap;rounded=0;" vertex="1" parent="1">
          <mxGeometry y="350" width="60" height="14" as="geometry" />
        </mxCell>
        <mxCell id="_sGEJhz44TBx7jCd18O7-25" value="" style="edgeStyle=none;orthogonalLoop=1;jettySize=auto;html=1;rounded=0;" edge="1" parent="1">
          <mxGeometry width="100" relative="1" as="geometry">
            <mxPoint x="130" y="304" as="sourcePoint" />
            <mxPoint x="129.5" y="354" as="targetPoint" />
            <Array as="points" />
          </mxGeometry>
        </mxCell>
        <mxCell id="_sGEJhz44TBx7jCd18O7-26" value="Методичні рекомендації до оцінювання знань студента" style="text;html=1;strokeColor=none;fillColor=none;align=center;verticalAlign=middle;whiteSpace=wrap;rounded=0;" vertex="1" parent="1">
          <mxGeometry x="75" y="260" width="115" height="40" as="geometry" />
        </mxCell>
        <mxCell id="_sGEJhz44TBx7jCd18O7-27" value="" style="edgeStyle=none;orthogonalLoop=1;jettySize=auto;html=1;rounded=0;" edge="1" parent="1">
          <mxGeometry width="100" relative="1" as="geometry">
            <mxPoint x="120" y="474.5" as="sourcePoint" />
            <mxPoint x="120" y="414" as="targetPoint" />
            <Array as="points" />
          </mxGeometry>
        </mxCell>
        <mxCell id="_sGEJhz44TBx7jCd18O7-28" value="Викладач" style="text;html=1;strokeColor=none;fillColor=none;align=center;verticalAlign=middle;whiteSpace=wrap;rounded=0;" vertex="1" parent="1">
          <mxGeometry x="90" y="470" width="60" height="30" as="geometry" />
        </mxCell>
        <mxCell id="_sGEJhz44TBx7jCd18O7-50" value="Підготовка необхідних умов для проведення певного виду контролю" style="rounded=0;whiteSpace=wrap;html=1;" vertex="1" parent="1">
          <mxGeometry x="270" y="410" width="90" height="80" as="geometry" />
        </mxCell>
        <mxCell id="_sGEJhz44TBx7jCd18O7-54" value="" style="edgeStyle=none;orthogonalLoop=1;jettySize=auto;html=1;rounded=0;" edge="1" parent="1">
          <mxGeometry width="100" relative="1" as="geometry">
            <mxPoint x="320" y="332" as="sourcePoint" />
            <mxPoint x="320" y="410" as="targetPoint" />
            <Array as="points" />
          </mxGeometry>
        </mxCell>
        <mxCell id="_sGEJhz44TBx7jCd18O7-57" value="" style="endArrow=none;html=1;rounded=0;" edge="1" parent="1">
          <mxGeometry width="50" height="50" relative="1" as="geometry">
            <mxPoint x="130" y="330" as="sourcePoint" />
            <mxPoint x="320" y="330" as="targetPoint" />
          </mxGeometry>
        </mxCell>
        <mxCell id="_sGEJhz44TBx7jCd18O7-62" value="Проведення контролю" style="rounded=0;whiteSpace=wrap;html=1;" vertex="1" parent="1">
          <mxGeometry x="440" y="520" width="120" height="65" as="geometry" />
        </mxCell>
        <mxCell id="_sGEJhz44TBx7jCd18O7-63" value="" style="edgeStyle=none;orthogonalLoop=1;jettySize=auto;html=1;rounded=0;" edge="1" parent="1">
          <mxGeometry width="100" relative="1" as="geometry">
            <mxPoint x="500" y="470" as="sourcePoint" />
            <mxPoint x="499.5" y="520" as="targetPoint" />
            <Array as="points" />
          </mxGeometry>
        </mxCell>
        <mxCell id="_sGEJhz44TBx7jCd18O7-64" value="Методичні рекомендації до оцінювання знань студента" style="text;html=1;strokeColor=none;fillColor=none;align=center;verticalAlign=middle;whiteSpace=wrap;rounded=0;" vertex="1" parent="1">
          <mxGeometry x="440" y="414" width="115" height="40" as="geometry" />
        </mxCell>
        <mxCell id="_sGEJhz44TBx7jCd18O7-65" value="" style="edgeStyle=none;orthogonalLoop=1;jettySize=auto;html=1;rounded=0;" edge="1" parent="1">
          <mxGeometry width="100" relative="1" as="geometry">
            <mxPoint x="490" y="645.5" as="sourcePoint" />
            <mxPoint x="490" y="585" as="targetPoint" />
            <Array as="points" />
          </mxGeometry>
        </mxCell>
        <mxCell id="_sGEJhz44TBx7jCd18O7-66" value="Викладач" style="text;html=1;strokeColor=none;fillColor=none;align=center;verticalAlign=middle;whiteSpace=wrap;rounded=0;" vertex="1" parent="1">
          <mxGeometry x="467.5" y="655" width="60" height="30" as="geometry" />
        </mxCell>
        <mxCell id="_sGEJhz44TBx7jCd18O7-68" value="" style="endArrow=none;html=1;rounded=0;" edge="1" parent="1">
          <mxGeometry width="50" height="50" relative="1" as="geometry">
            <mxPoint x="560" y="545" as="sourcePoint" />
            <mxPoint x="570" y="545" as="targetPoint" />
          </mxGeometry>
        </mxCell>
        <mxCell id="_sGEJhz44TBx7jCd18O7-69" value="" style="endArrow=none;html=1;rounded=0;" edge="1" parent="1">
          <mxGeometry width="50" height="50" relative="1" as="geometry">
            <mxPoint x="570" y="565" as="sourcePoint" />
            <mxPoint x="570" y="545" as="targetPoint" />
          </mxGeometry>
        </mxCell>
        <mxCell id="_sGEJhz44TBx7jCd18O7-70" value="Збір результату" style="text;html=1;strokeColor=none;fillColor=none;align=center;verticalAlign=middle;whiteSpace=wrap;rounded=0;" vertex="1" parent="1">
          <mxGeometry x="555" y="555" width="60" height="30" as="geometry" />
        </mxCell>
        <mxCell id="_sGEJhz44TBx7jCd18O7-71" value="" style="endArrow=none;html=1;rounded=0;" edge="1" parent="1">
          <mxGeometry width="50" height="50" relative="1" as="geometry">
            <mxPoint x="570" y="605" as="sourcePoint" />
            <mxPoint x="570" y="585" as="targetPoint" />
          </mxGeometry>
        </mxCell>
        <mxCell id="_sGEJhz44TBx7jCd18O7-74" value="" style="endArrow=classic;html=1;rounded=0;" edge="1" parent="1">
          <mxGeometry width="50" height="50" relative="1" as="geometry">
            <mxPoint x="570" y="605" as="sourcePoint" />
            <mxPoint x="600" y="605" as="targetPoint" />
          </mxGeometry>
        </mxCell>
        <mxCell id="_sGEJhz44TBx7jCd18O7-75" value="Оцінення результатів контролю відповідно до рекомендацій оцінювання знань студента" style="rounded=0;whiteSpace=wrap;html=1;" vertex="1" parent="1">
          <mxGeometry x="600" y="585" width="120" height="100" as="geometry" />
        </mxCell>
        <mxCell id="_sGEJhz44TBx7jCd18O7-76" value="" style="endArrow=none;html=1;rounded=0;" edge="1" parent="1">
          <mxGeometry width="50" height="50" relative="1" as="geometry">
            <mxPoint x="500" y="615" as="sourcePoint" />
            <mxPoint x="550" y="615" as="targetPoint" />
            <Array as="points">
              <mxPoint x="490" y="615" />
              <mxPoint x="500" y="615" />
            </Array>
          </mxGeometry>
        </mxCell>
        <mxCell id="_sGEJhz44TBx7jCd18O7-77" value="" style="endArrow=none;html=1;rounded=0;" edge="1" parent="1">
          <mxGeometry width="50" height="50" relative="1" as="geometry">
            <mxPoint x="550" y="715" as="sourcePoint" />
            <mxPoint x="550" y="615" as="targetPoint" />
          </mxGeometry>
        </mxCell>
        <mxCell id="_sGEJhz44TBx7jCd18O7-78" value="" style="endArrow=none;html=1;rounded=0;" edge="1" parent="1">
          <mxGeometry width="50" height="50" relative="1" as="geometry">
            <mxPoint x="550" y="715" as="sourcePoint" />
            <mxPoint x="630" y="715" as="targetPoint" />
          </mxGeometry>
        </mxCell>
        <mxCell id="_sGEJhz44TBx7jCd18O7-79" value="" style="endArrow=classic;html=1;rounded=0;entryX=0.25;entryY=1;entryDx=0;entryDy=0;" edge="1" parent="1" target="_sGEJhz44TBx7jCd18O7-75">
          <mxGeometry width="50" height="50" relative="1" as="geometry">
            <mxPoint x="630" y="715" as="sourcePoint" />
            <mxPoint x="680" y="665" as="targetPoint" />
          </mxGeometry>
        </mxCell>
        <mxCell id="_sGEJhz44TBx7jCd18O7-85" value="" style="endArrow=none;html=1;rounded=0;" edge="1" parent="1">
          <mxGeometry width="50" height="50" relative="1" as="geometry">
            <mxPoint x="310" y="519" as="sourcePoint" />
            <mxPoint x="180" y="519" as="targetPoint" />
          </mxGeometry>
        </mxCell>
        <mxCell id="_sGEJhz44TBx7jCd18O7-86" value="" style="endArrow=none;html=1;rounded=0;" edge="1" parent="1">
          <mxGeometry width="50" height="50" relative="1" as="geometry">
            <mxPoint x="190" y="389" as="sourcePoint" />
            <mxPoint x="200" y="390" as="targetPoint" />
          </mxGeometry>
        </mxCell>
        <mxCell id="_sGEJhz44TBx7jCd18O7-87" value="" style="endArrow=none;html=1;rounded=0;" edge="1" parent="1">
          <mxGeometry width="50" height="50" relative="1" as="geometry">
            <mxPoint x="200" y="400" as="sourcePoint" />
            <mxPoint x="200" y="389" as="targetPoint" />
          </mxGeometry>
        </mxCell>
        <mxCell id="_sGEJhz44TBx7jCd18O7-89" value="чітка&amp;nbsp;&lt;br&gt;інформація&lt;br&gt;щодо&amp;nbsp;&lt;br&gt;проведення&lt;br&gt;контролю" style="text;html=1;align=center;verticalAlign=middle;resizable=0;points=[];autosize=1;strokeColor=none;fillColor=none;" vertex="1" parent="1">
          <mxGeometry x="175" y="380" width="90" height="90" as="geometry" />
        </mxCell>
        <mxCell id="_sGEJhz44TBx7jCd18O7-93" value="" style="endArrow=none;html=1;rounded=0;entryX=0.051;entryY=1;entryDx=0;entryDy=0;entryPerimeter=0;" edge="1" parent="1" target="_sGEJhz44TBx7jCd18O7-89">
          <mxGeometry width="50" height="50" relative="1" as="geometry">
            <mxPoint x="120" y="469" as="sourcePoint" />
            <mxPoint x="150" y="469" as="targetPoint" />
          </mxGeometry>
        </mxCell>
        <mxCell id="_sGEJhz44TBx7jCd18O7-94" value="" style="endArrow=classic;html=1;rounded=0;entryX=1.056;entryY=0.698;entryDx=0;entryDy=0;entryPerimeter=0;" edge="1" parent="1" target="_sGEJhz44TBx7jCd18O7-89">
          <mxGeometry width="50" height="50" relative="1" as="geometry">
            <mxPoint x="240" y="444" as="sourcePoint" />
            <mxPoint x="540" y="414" as="targetPoint" />
          </mxGeometry>
        </mxCell>
        <mxCell id="_sGEJhz44TBx7jCd18O7-95" value="" style="endArrow=none;html=1;rounded=0;" edge="1" parent="1">
          <mxGeometry width="50" height="50" relative="1" as="geometry">
            <mxPoint x="180" y="520" as="sourcePoint" />
            <mxPoint x="180" y="470" as="targetPoint" />
          </mxGeometry>
        </mxCell>
        <mxCell id="_sGEJhz44TBx7jCd18O7-98" value="" style="endArrow=classic;html=1;rounded=0;" edge="1" parent="1">
          <mxGeometry width="50" height="50" relative="1" as="geometry">
            <mxPoint x="310" y="520" as="sourcePoint" />
            <mxPoint x="310" y="490" as="targetPoint" />
          </mxGeometry>
        </mxCell>
        <mxCell id="_sGEJhz44TBx7jCd18O7-99" value="підготовлений &lt;br&gt;матеріал&lt;br&gt;&amp;nbsp;(якщо потрібно) &lt;br&gt;для проведення &lt;br&gt;контролю" style="edgeLabel;html=1;align=center;verticalAlign=middle;resizable=0;points=[];" vertex="1" connectable="0" parent="1">
          <mxGeometry x="380" y="500" as="geometry">
            <mxPoint x="24" y="-4" as="offset" />
          </mxGeometry>
        </mxCell>
        <mxCell id="_sGEJhz44TBx7jCd18O7-100" value="" style="endArrow=none;html=1;rounded=0;" edge="1" parent="1">
          <mxGeometry width="50" height="50" relative="1" as="geometry">
            <mxPoint x="360" y="450" as="sourcePoint" />
            <mxPoint x="370" y="450" as="targetPoint" />
          </mxGeometry>
        </mxCell>
        <mxCell id="_sGEJhz44TBx7jCd18O7-101" value="" style="endArrow=none;html=1;rounded=0;" edge="1" parent="1">
          <mxGeometry width="50" height="50" relative="1" as="geometry">
            <mxPoint x="370" y="460" as="sourcePoint" />
            <mxPoint x="370" y="450" as="targetPoint" />
          </mxGeometry>
        </mxCell>
        <mxCell id="_sGEJhz44TBx7jCd18O7-102" value="" style="endArrow=none;html=1;rounded=0;" edge="1" parent="1">
          <mxGeometry width="50" height="50" relative="1" as="geometry">
            <mxPoint x="380" y="550" as="sourcePoint" />
            <mxPoint x="380" y="540" as="targetPoint" />
          </mxGeometry>
        </mxCell>
        <mxCell id="_sGEJhz44TBx7jCd18O7-103" value="" style="endArrow=classic;html=1;rounded=0;" edge="1" parent="1">
          <mxGeometry width="50" height="50" relative="1" as="geometry">
            <mxPoint x="380" y="550" as="sourcePoint" />
            <mxPoint x="440" y="550" as="targetPoint" />
          </mxGeometry>
        </mxCell>
        <mxCell id="_sGEJhz44TBx7jCd18O7-104" value="" style="endArrow=none;html=1;rounded=0;" edge="1" parent="1">
          <mxGeometry width="50" height="50" relative="1" as="geometry">
            <mxPoint x="720" y="630" as="sourcePoint" />
            <mxPoint x="730" y="630" as="targetPoint" />
          </mxGeometry>
        </mxCell>
        <mxCell id="_sGEJhz44TBx7jCd18O7-107" value="" style="endArrow=none;html=1;rounded=0;" edge="1" parent="1">
          <mxGeometry width="50" height="50" relative="1" as="geometry">
            <mxPoint x="730" y="640" as="sourcePoint" />
            <mxPoint x="730" y="630" as="targetPoint" />
          </mxGeometry>
        </mxCell>
        <mxCell id="_sGEJhz44TBx7jCd18O7-108" value="Сформована&lt;br&gt;оцінка" style="text;html=1;strokeColor=none;fillColor=none;align=center;verticalAlign=middle;whiteSpace=wrap;rounded=0;" vertex="1" parent="1">
          <mxGeometry x="730" y="640" width="60" height="30" as="geometry" />
        </mxCell>
        <mxCell id="_sGEJhz44TBx7jCd18O7-109" value="Оголошення&amp;nbsp;&lt;br&gt;оцінки студента" style="rounded=0;whiteSpace=wrap;html=1;" vertex="1" parent="1">
          <mxGeometry x="800" y="640" width="90" height="80" as="geometry" />
        </mxCell>
        <mxCell id="_sGEJhz44TBx7jCd18O7-110" value="" style="endArrow=none;html=1;rounded=0;" edge="1" parent="1">
          <mxGeometry width="50" height="50" relative="1" as="geometry">
            <mxPoint x="730" y="690" as="sourcePoint" />
            <mxPoint x="730" y="675" as="targetPoint" />
          </mxGeometry>
        </mxCell>
        <mxCell id="_sGEJhz44TBx7jCd18O7-111" value="" style="endArrow=classic;html=1;rounded=0;" edge="1" parent="1">
          <mxGeometry width="50" height="50" relative="1" as="geometry">
            <mxPoint x="730" y="690" as="sourcePoint" />
            <mxPoint x="800" y="690" as="targetPoint" />
          </mxGeometry>
        </mxCell>
        <mxCell id="_sGEJhz44TBx7jCd18O7-112" value="" style="edgeStyle=none;orthogonalLoop=1;jettySize=auto;html=1;rounded=0;" edge="1" parent="1">
          <mxGeometry width="100" relative="1" as="geometry">
            <mxPoint x="840" y="780.5" as="sourcePoint" />
            <mxPoint x="840" y="720" as="targetPoint" />
            <Array as="points" />
          </mxGeometry>
        </mxCell>
        <mxCell id="_sGEJhz44TBx7jCd18O7-113" value="Викладач" style="text;html=1;strokeColor=none;fillColor=none;align=center;verticalAlign=middle;whiteSpace=wrap;rounded=0;" vertex="1" parent="1">
          <mxGeometry x="815" y="770" width="60" height="30" as="geometry" />
        </mxCell>
        <mxCell id="_sGEJhz44TBx7jCd18O7-114" value="" style="endArrow=classic;html=1;rounded=0;entryX=0.156;entryY=0.005;entryDx=0;entryDy=0;entryPerimeter=0;" edge="1" parent="1" target="_sGEJhz44TBx7jCd18O7-109">
          <mxGeometry width="50" height="50" relative="1" as="geometry">
            <mxPoint x="815" y="560" as="sourcePoint" />
            <mxPoint x="815" y="630" as="targetPoint" />
          </mxGeometry>
        </mxCell>
        <mxCell id="_sGEJhz44TBx7jCd18O7-115" value="" style="endArrow=none;html=1;rounded=0;" edge="1" parent="1">
          <mxGeometry width="50" height="50" relative="1" as="geometry">
            <mxPoint x="500" y="490" as="sourcePoint" />
            <mxPoint x="670" y="490" as="targetPoint" />
          </mxGeometry>
        </mxCell>
        <mxCell id="_sGEJhz44TBx7jCd18O7-116" value="" style="endArrow=classic;html=1;rounded=0;entryX=0.577;entryY=0.01;entryDx=0;entryDy=0;entryPerimeter=0;" edge="1" parent="1" target="_sGEJhz44TBx7jCd18O7-75">
          <mxGeometry width="50" height="50" relative="1" as="geometry">
            <mxPoint x="670" y="490" as="sourcePoint" />
            <mxPoint x="670" y="580" as="targetPoint" />
          </mxGeometry>
        </mxCell>
        <mxCell id="_sGEJhz44TBx7jCd18O7-117" value="Методичні рекомендації до оцінювання знань студента" style="text;html=1;strokeColor=none;fillColor=none;align=center;verticalAlign=middle;whiteSpace=wrap;rounded=0;" vertex="1" parent="1">
          <mxGeometry x="750" y="510" width="115" height="40" as="geometry" />
        </mxCell>
        <mxCell id="_sGEJhz44TBx7jCd18O7-118" value="" style="endArrow=classic;html=1;rounded=0;" edge="1" parent="1">
          <mxGeometry width="50" height="50" relative="1" as="geometry">
            <mxPoint x="864" y="580" as="sourcePoint" />
            <mxPoint x="864" y="640" as="targetPoint" />
          </mxGeometry>
        </mxCell>
        <mxCell id="_sGEJhz44TBx7jCd18O7-119" value="Бажання студента" style="text;html=1;strokeColor=none;fillColor=none;align=center;verticalAlign=middle;whiteSpace=wrap;rounded=0;" vertex="1" parent="1">
          <mxGeometry x="850" y="550" width="60" height="30" as="geometry" />
        </mxCell>
        <mxCell id="_sGEJhz44TBx7jCd18O7-120" value="" style="endArrow=classic;html=1;rounded=0;" edge="1" parent="1">
          <mxGeometry width="50" height="50" relative="1" as="geometry">
            <mxPoint x="890" y="680" as="sourcePoint" />
            <mxPoint x="940" y="680" as="targetPoint" />
          </mxGeometry>
        </mxCell>
        <mxCell id="_sGEJhz44TBx7jCd18O7-121" value="Оцінені знання студента" style="text;html=1;strokeColor=none;fillColor=none;align=center;verticalAlign=middle;whiteSpace=wrap;rounded=0;" vertex="1" parent="1">
          <mxGeometry x="890" y="660" width="110" height="10" as="geometry" />
        </mxCell>
      </root>
    </mxGraphModel>
  </diagram>
</mxfile>
